<svg xmlns="http://www.w3.org/2000/svg" width="128" height="128" viewBox="0 0 128 128">
    <!-- Background -->
    <rect width="128" height="128" fill="#1A1A1A"/>
    
    <!-- GraphQL symbol - scaled for 128px -->
    <g transform="translate(24, 24) scale(0.55)">
        <!-- Straight connection lines -->
        <path d="
            M75 20 L125 45
            M125 45 L125 95
            M125 95 L75 120
            M75 120 L25 95
            M25 95 L25 45
            M25 45 L75 20
            
            M25 45 L125 95
            M125 45 L25 95
            M75 20 L75 120
        " stroke="white" stroke-width="5" fill="none"/>
        
        <!-- Nodes -->
        <circle cx="75" cy="20" r="12" fill="white"/>
        <circle cx="125" cy="45" r="12" fill="white"/>
        <circle cx="125" cy="95" r="12" fill="white"/>
        <circle cx="75" cy="120" r="12" fill="white"/>
        <circle cx="25" cy="95" r="12" fill="white"/>
        <circle cx="25" cy="45" r="12" fill="white"/>
        
        <!-- Center node -->
        <circle cx="75" cy="70" r="14" fill="#FF69B4"/>
    </g>
    
    <!-- Magnifying glass - scaled -->
    <g transform="translate(75, 75) rotate(-20)">
        <!-- Glass -->
        <circle cx="0" cy="0" r="22" 
                fill="none" 
                stroke="white" 
                stroke-width="6"/>
        
        <!-- Handle -->
        <rect x="16" y="-3" width="28" height="6" 
              fill="white" 
              transform="rotate(45)"
              rx="3"/>
        
        <!-- Scanning effect -->
        <circle cx="0" cy="0" r="17" 
                fill="none" 
                stroke="#FF69B4" 
                stroke-width="2"
                stroke-dasharray="3,3"/>
        
        <!-- Reflection -->
        <path d="M-12 -9 Q-6 -15 0 -12" 
              stroke="white" 
              stroke-width="2" 
              fill="none"/>
    </g>
</svg>
